<svg width="189" height="28" viewBox="0 0 189 28" fill="none" xmlns="http://www.w3.org/2000/svg">
<path d="M54.6554 22.0075C54.4708 21.7519 54.3785 21.3863 54.3785 20.9109V12.5113H55.4278C55.6617 12.5111 55.8896 12.437 56.0798 12.2993C56.2701 12.1616 56.4131 11.9672 56.4889 11.7433L57.8395 7.76907H54.3785V2.13641L50.1238 3.61762C49.8842 3.70122 49.6763 3.85842 49.5291 4.06733C49.3818 4.27623 49.3027 4.52642 49.3026 4.78303V7.77014H48.4973C48.2637 7.77073 48.0361 7.84487 47.846 7.98229C47.6559 8.1197 47.5127 8.31358 47.4363 8.53706L46.0867 12.5113H49.3058V22.1858C49.3058 23.8844 49.6977 25.1676 50.4814 26.0354C51.2651 26.9033 52.4959 27.3376 54.1737 27.3383H54.2109C54.4553 27.3391 54.6938 27.2622 54.8927 27.1185C55.0916 26.9747 55.241 26.7713 55.3196 26.5371L56.7286 22.391H55.4703C55.3137 22.4005 55.1572 22.3705 55.015 22.3035C54.8727 22.2366 54.7492 22.1349 54.6554 22.0075Z" fill="#F6F6F6"/>
<path d="M76.1654 22.4038C76.0088 22.4133 75.8522 22.3831 75.71 22.3159C75.5677 22.2488 75.4442 22.1469 75.3506 22.0193C75.166 21.7637 75.0733 21.3985 75.0726 20.9237V7.80664H70.7903C70.6861 7.80664 70.5829 7.82742 70.4866 7.8678C70.3903 7.90818 70.3029 7.96736 70.2292 8.04196C70.1555 8.11657 70.097 8.20514 70.0571 8.30262C70.0172 8.40009 69.9967 8.50457 69.9967 8.61008V19.5177C69.9967 20.5045 69.7406 21.2635 69.2285 21.7948C68.7164 22.3262 67.9854 22.5915 67.0354 22.5907C66.0847 22.5907 65.3473 22.3315 64.8232 21.8131C64.2991 21.2946 64.0359 20.5671 64.0338 19.6305V8.61867V7.80664H59.7675C59.5547 7.80664 59.3507 7.89219 59.2003 8.04448C59.0498 8.19676 58.9653 8.40331 58.9653 8.61867V19.8185C58.9653 22.2796 59.527 24.1812 60.6502 25.5231C61.7735 26.865 63.365 27.5367 65.4248 27.5381C66.6152 27.5381 69.0885 26.9355 69.9872 26.464L71.0365 25.8861C71.0811 25.942 71.1267 25.9935 71.1744 26.0494C71.9582 26.9173 73.1893 27.3512 74.8678 27.3512C75.1159 27.3513 75.3582 27.2747 75.5622 27.1317C75.7662 26.9888 75.9222 26.7862 76.0095 26.551L77.4185 22.4049L76.1654 22.4038Z" fill="#F6F6F6"/>
<path d="M95.5575 22.391C95.4011 22.4004 95.2448 22.3703 95.1027 22.3034C94.9607 22.2365 94.8373 22.1348 94.7437 22.0075C94.5584 21.7519 94.4657 21.3863 94.4657 20.9108V4.78303H94.4424V0L90.1877 1.4812C89.948 1.565 89.7401 1.72241 89.5929 1.93149C89.4457 2.14058 89.3665 2.39094 89.3665 2.64769V8.58647C88.4668 8.11386 86.0031 7.51235 84.8158 7.51235C82.7553 7.51235 81.1638 8.18403 80.0413 9.52739C78.9187 10.8707 78.3574 12.773 78.3574 15.2342V19.8056C78.3574 22.2667 78.9187 24.1686 80.0413 25.5113C81.1638 26.8539 82.7553 27.5252 84.8158 27.5252C86.0126 27.5252 88.506 26.9162 89.3877 26.4415L90.4021 25.8389C90.4551 25.9062 90.5103 25.9717 90.5676 26.0354C91.3506 26.904 92.5814 27.3383 94.2599 27.3383H94.297C94.5413 27.3389 94.7795 27.2619 94.9783 27.1181C95.177 26.9744 95.3261 26.7712 95.4047 26.5371L96.8191 22.391H95.5575ZM89.392 19.5059C89.392 20.4927 89.1359 21.2513 88.6238 21.782C88.1117 22.3126 87.3806 22.5782 86.4307 22.5789C85.48 22.5789 84.7426 22.3197 84.2185 21.8013C83.6943 21.2829 83.4323 20.5553 83.4323 19.6187V15.4211C83.4323 14.4844 83.6943 13.7569 84.2185 13.2385C84.7426 12.72 85.4793 12.4604 86.4286 12.4597C87.3778 12.4597 88.1089 12.725 88.6217 13.2556C89.0546 13.7046 89.3043 14.3172 89.3708 15.0934V16.3985H89.3898V19.5134L89.392 19.5059Z" fill="#F6F6F6"/>
<path d="M103.822 22.4672C103.665 22.4766 103.508 22.4463 103.366 22.3792C103.224 22.3121 103.1 22.2102 103.007 22.0827C102.822 21.8271 102.73 21.4619 102.73 20.9871V6.66703L98.4752 8.14931C98.2355 8.23277 98.0275 8.38994 97.8802 8.59888C97.733 8.80781 97.6539 9.05808 97.654 9.31472V22.261C97.654 23.9603 98.0458 25.2438 98.8296 26.1117C99.6133 26.9796 100.844 27.4135 102.522 27.4135H102.559C102.803 27.4142 103.041 27.3373 103.24 27.1938C103.439 27.0502 103.588 26.8472 103.667 26.6133L105.076 22.4672H103.822ZM102.728 0.0751953L98.4731 1.55747C98.2333 1.64093 98.0253 1.79811 97.8781 2.00704C97.7309 2.21597 97.6518 2.46624 97.6519 2.72289V6.26102L101.905 4.77981C102.145 4.69635 102.353 4.53918 102.5 4.33025C102.648 4.12131 102.727 3.87105 102.727 3.6144L102.728 0.0751953Z" fill="#F6F6F6"/>
<path d="M109.486 26.5306C108.265 25.8875 107.275 24.8732 106.654 23.6305C106.006 22.3616 105.683 20.8342 105.683 19.0483V15.8894C105.683 14.1278 106.006 12.6194 106.654 11.3641C107.279 10.1326 108.269 9.13004 109.486 8.49732C110.726 7.84497 112.223 7.5188 113.975 7.5188C115.727 7.5188 117.223 7.84676 118.463 8.50269C119.68 9.13482 120.67 10.1375 121.295 11.3695C121.943 12.6248 122.267 14.1332 122.267 15.8947V19.1171C122.267 20.8901 121.943 22.4046 121.295 23.6606C120.668 24.8914 119.679 25.8944 118.464 26.5306C117.223 27.1923 115.727 27.5231 113.976 27.5231C112.224 27.5231 110.728 27.1923 109.486 26.5306ZM116.342 21.6702C116.908 21.0644 117.191 20.212 117.191 19.1128V15.8904C117.191 14.8034 116.908 13.9603 116.342 13.3609C115.776 12.7615 114.981 12.4612 113.956 12.4597C112.945 12.4597 112.158 12.7594 111.596 13.3588C111.034 13.9581 110.753 14.8013 110.753 15.8883V19.1106C110.753 20.2091 111.031 21.0616 111.586 21.6681C112.142 22.2746 112.931 22.5775 113.956 22.5768C114.981 22.5782 115.776 22.276 116.342 21.6702Z" fill="#F6F6F6"/>
<path d="M131.138 7.79485V6.05263C131.12 5.67444 131.217 5.29982 131.414 4.97852C131.504 4.84464 131.626 4.7364 131.768 4.66432C131.911 4.59224 132.07 4.55876 132.229 4.56713H136.448V0.807734C136.447 0.594141 136.363 0.389505 136.214 0.23827C136.065 0.0870346 135.863 0.00141287 135.652 0L130.865 0C129.238 0 128.032 0.429646 127.247 1.28894C126.462 2.14823 126.07 3.43716 126.071 5.15575V7.79807H125.254C125.02 7.79826 124.792 7.87237 124.602 8.01006C124.412 8.14774 124.269 8.34212 124.193 8.56606L122.843 12.5403H126.065V27.3405H130.334C130.547 27.3405 130.751 27.2551 130.901 27.103C131.052 26.951 131.136 26.7447 131.136 26.5295V12.536H134.934C135.168 12.5358 135.396 12.4617 135.586 12.324C135.776 12.1863 135.919 11.9919 135.995 11.768L137.346 7.79377L131.138 7.79485Z" fill="#F6F6F6"/>
<path d="M38.214 7.78301C36.5482 7.78301 35.1289 8.02325 33.9562 8.50374C32.7834 8.98422 31.889 9.68705 31.2729 10.6122C30.6554 11.536 30.3477 12.392 30.3477 13.6906C30.3477 15.1772 30.6469 16.3108 31.2453 17.0913C31.7952 17.8377 32.5621 18.3913 33.4384 18.6745C34.3021 18.9495 35.4497 19.1808 36.8814 19.3684C36.9339 19.3686 36.9863 19.3718 37.0384 19.3781C37.0913 19.3837 37.1438 19.393 37.1954 19.406L37.8893 19.4812L38.5652 19.5553C39.1924 19.6063 39.8164 19.6909 40.4347 19.8088C40.8303 19.8802 41.2041 20.0439 41.5265 20.2868C41.8094 20.5109 41.9509 20.8417 41.9509 21.2792C41.9509 21.754 41.6241 22.1257 40.9705 22.3942C40.317 22.6627 39.3974 22.797 38.2119 22.797H33.119C32.8855 22.7965 32.6576 22.8699 32.4673 23.007C32.2771 23.1442 32.1339 23.3381 32.058 23.5617L30.7084 27.536H38.213C39.9523 27.536 41.4377 27.2828 42.6692 26.7766C43.9007 26.2703 44.8383 25.5363 45.482 24.5746C46.1235 23.6137 46.4443 22.4583 46.4443 21.1085C46.4443 19.5102 46.1143 18.2986 45.4544 17.4737C44.8453 16.684 44.0071 16.1074 43.0576 15.8249C42.1196 15.5499 40.9044 15.3251 39.4119 15.1504C39.357 15.1368 39.3007 15.1303 39.2443 15.131C39.1882 15.132 39.1322 15.1258 39.0777 15.1128L38.7445 15.0752L38.4114 15.0376C37.5477 14.9373 36.8909 14.8467 36.4411 14.7658C36.0445 14.7046 35.662 14.5714 35.3121 14.3727C35.0087 14.1912 34.858 14.1955 34.858 13.87C34.858 13.4454 35.141 13.1146 35.7068 12.8775C36.2727 12.6405 37.0685 12.5216 38.0941 12.5209H43.6634C43.8971 12.5206 44.1248 12.4466 44.315 12.3092C44.5052 12.1717 44.6483 11.9777 44.7244 11.754L46.0751 7.77979L38.214 7.78301Z" fill="#F6F6F6"/>
<path d="M152.104 22.406C152.104 22.406 151.629 22.3523 151.401 22.0193C151.254 21.7815 151.158 21.5151 151.119 21.2374V15.0161C151.119 13.4916 150.807 12.189 150.184 11.1085C149.553 10.0222 148.606 9.15943 147.473 8.638C146.287 8.06944 144.856 7.78516 143.179 7.78516H139.762C139.528 7.78559 139.3 7.85967 139.11 7.9971C138.92 8.13454 138.777 8.32851 138.701 8.55207L137.351 12.5263H143.107C144.192 12.5263 145.032 12.6197 145.624 13.1063C146.19 13.5696 146.485 14.2173 146.51 15.0494V15.754H141.868C139.584 15.754 137.872 16.2349 136.731 17.1965C135.59 18.1582 135.018 19.6004 135.016 21.5231C135.016 23.5467 135.525 25.0551 136.542 26.0483C137.56 27.0415 139.1 27.5381 141.161 27.5381C142.08 27.5103 142.994 27.3876 143.888 27.1718C144.984 26.9065 145.97 26.5596 146.714 26.0891C146.814 26.0419 147.106 25.884 147.106 25.884C147.218 26.0676 147.437 26.2062 147.577 26.3555C148.339 27.0505 149.388 27.247 150.908 27.3512C150.99 27.3524 151.073 27.3445 151.154 27.3276C151.929 27.1332 152.047 26.6047 152.195 26.1697L153.474 22.4103L152.104 22.406ZM145.52 22.928C144.86 23.2402 143.851 23.3963 142.494 23.3963C141.518 23.3963 140.79 23.2434 140.309 22.9377C139.828 22.6319 139.588 22.1604 139.588 21.5231C139.588 20.8987 139.779 20.4332 140.162 20.1267C140.544 19.8202 141.118 19.6674 141.883 19.6681H146.509V21.4941C146.499 22.1428 146.17 22.6208 145.52 22.928Z" fill="#F6F6F6"/>
<path d="M166.422 7.89798C165.727 7.63558 164.991 7.50698 164.25 7.51882C163.241 7.51824 162.26 7.85842 161.464 8.48552C160.782 9.01617 160.212 9.68024 159.788 10.4383V7.79486H155.148C154.936 7.79486 154.732 7.8803 154.582 8.03239C154.432 8.18447 154.347 8.39074 154.347 8.60582V27.3405H158.995C159.207 27.3405 159.41 27.2553 159.56 27.1036C159.709 26.9519 159.794 26.7462 159.794 26.5317V16.246C159.794 15.0587 160.074 14.1311 160.636 13.463C161.198 12.7949 161.991 12.4608 163.015 12.4608C163.436 12.4534 163.855 12.5165 164.255 12.6477C164.596 12.7623 164.906 12.9549 165.161 13.2105L168.119 9.03117C167.641 8.53381 167.062 8.14723 166.422 7.89798Z" fill="#F6F6F6"/>
<path d="M184.867 22.391C184.711 22.4004 184.554 22.3703 184.412 22.3034C184.27 22.2365 184.146 22.1348 184.053 22.0075C183.868 21.7519 183.776 21.3863 183.776 20.9108V4.78303H183.752V0L179.498 1.4812C179.258 1.565 179.05 1.72241 178.903 1.93149C178.756 2.14058 178.676 2.39094 178.676 2.64769V8.58647C177.777 8.11386 175.313 7.51235 174.126 7.51235C172.065 7.51235 170.473 8.18403 169.351 9.52739C168.229 10.8707 167.668 12.7726 167.666 15.2331V19.8045C167.666 22.2657 168.228 24.1676 169.351 25.5102C170.474 26.8528 172.066 27.5242 174.126 27.5242C175.321 27.5242 177.815 26.9151 178.697 26.4404L179.712 25.8378C179.765 25.9055 179.818 25.971 179.876 26.0344C180.661 26.903 181.892 27.3373 183.57 27.3373H183.606C183.85 27.3381 184.089 27.2612 184.288 27.1174C184.487 26.9736 184.636 26.7703 184.715 26.536L186.124 22.3899L184.867 22.391ZM178.699 19.5059C178.699 20.4927 178.443 21.2513 177.931 21.782C177.418 22.3126 176.687 22.5782 175.737 22.5789C174.788 22.5789 174.051 22.3197 173.526 21.8013C173.001 21.2829 172.739 20.5553 172.739 19.6187V15.4211C172.739 14.4844 173.001 13.7569 173.526 13.2385C174.051 12.72 174.788 12.4604 175.737 12.4597C176.688 12.4597 177.419 12.725 177.931 13.2556C178.364 13.7046 178.614 14.3172 178.681 15.0934V16.3985H178.699V19.5134V19.5059Z" fill="#F6F6F6"/>
<path d="M9.9878 27.4131L8.71609 28C7.88032 26.2127 6.60059 24.2796 4.98788 22.4048C3.37384 20.5301 1.6448 18.9693 0 17.8736L0.786294 16.7222C2.56348 17.6934 4.52253 19.4224 6.20878 21.3833C7.89503 23.3442 9.30047 25.525 9.9878 27.4131Z" fill="#F6F6F6"/>
<path d="M25.7378 5.61346V18.5078C25.7378 19.4339 25.07 20.3935 24.1082 20.8425L13.1123 25.9823L11.2916 26.8333C10.5222 24.768 9.03822 22.4427 7.26968 20.3627C5.50114 18.2827 3.44809 16.4452 1.53662 15.3556C2.15908 14.4322 2.64797 13.7058 2.66266 13.6857L9.45765 3.60446C10.0507 2.72393 11.102 2.21196 12.0103 2.35805L24.7 4.39519L13.1924 14.2432L11.3678 13.8076L9.87307 16.2495L11.7298 18.4341L14.3732 17.3378L14.2276 15.4615L25.7378 5.61346Z" fill="#F6F6F6"/>
</svg>
